<svg class="mb-30" width="110px" height="110px" viewBox="0 0 110 110" version="1.1"
						xmlns="http://www.w3.org/2000/svg" xmlns:xlink="http://www.w3.org/1999/xlink">
							<g class="vector" transform="translate(-970.000000, -1440.000000)" fill="#1077DA">
								<g transform="translate(970.000000, 1440.000000)">
									<rect opacity="0.1" x="0" y="0" width="110" height="110" rx="55">
									</rect>
									<g transform="translate(25.000000, 25.000000)">
										<path
											d="M12.5675595,31.2162162 L27.6372973,31.2162162 L38.1778378,20.6756757 L30,20.6756757 C29.5534216,20.6756757 29.1891892,20.3114432 29.1891892,19.8648649 C29.1891892,19.4182865 29.5534216,19.0540541 30,19.0540541 L40.1351351,19.0540541 C40.2459892,19.0540541 40.3505027,19.0762216 40.4455216,19.1173946 C40.5405405,19.1554054 40.6323892,19.2155838 40.7084027,19.2915892 C40.7875865,19.370773 40.8445946,19.4594514 40.8825973,19.5544703 C40.9237703,19.6494973 40.9459378,19.7540027 40.9459378,19.8648568 L40.9459378,29.9999919 C40.9459378,30.4465703 40.5817054,30.8108027 40.135127,30.8108027 C39.6885486,30.8108027 39.3243162,30.4465703 39.3243162,29.9999919 L39.3243162,21.8221541 L28.7837757,32.3626946 L28.7837757,47.4324243 L59.5945865,47.4324243 L59.5945865,0.405397297 L12.5675595,0.405397297 L12.5675595,31.2162162 Z"
											></path>
										    <path
											d="M15.8108108,45 C15.6017757,45 15.3959027,44.9208162 15.2375432,44.7624568 C14.9208243,44.4457378 14.9208243,43.932673 15.2375432,43.6158892 L26.0156514,32.8377811 L0.405381081,32.8377811 L0.405381081,59.5945378 L27.1621378,59.5945378 L27.1621378,33.9842676 L16.3840297,44.7623757 C16.2256703,44.9207351 16.0197973,44.9999189 15.8107622,44.9999189 L15.8108108,45 Z"
											></path>
									</g>
								</g>
							</g>
					</svg>