<svg class="mb-30" width="110px" height="110px" viewBox="0 0 110 110" version="1.1"
						xmlns="http://www.w3.org/2000/svg" xmlns:xlink="http://www.w3.org/1999/xlink">
							<g class="vector" transform="translate(-580.000000, -1440.000000)" fill="#1077DA">
								<g transform="translate(580.000000, 1440.000000)">
									<rect opacity="0.1" x="0" y="0" width="110" height="110" rx="55">
									</rect>
									<g transform="translate(28.000000, 30.000000)">
										<path
											d="M11.8303929,13.3833333 C10.820252,13.3833333 9.97739286,14.2253333 9.97739286,15.2344444 C9.97739286,16.2435556 10.820252,17.0855556 11.8303929,17.0855556 C12.8405337,17.0855556 13.6833929,16.2435556 13.6833929,15.2344444 C13.6833929,14.2253333 12.8405337,13.3833333 11.8303929,13.3833333 Z"
											id="Fill-1"></path> 
										<path
											d="M42.6696071,13.3833333 C41.6594663,13.3833333 40.8166071,14.2253333 40.8166071,15.2344444 C40.8166071,16.2435556 41.6594663,17.0855556 42.6696071,17.0855556 C43.679748,17.0855556 44.5226113,16.2435556 44.5226113,15.2344444 C44.524776,14.2253333 43.6819168,13.3833333 42.6696071,13.3833333 Z"
											></path>
										<path
											d="M27.25,4.54666667 C12.1674031,-9.34222222 -9.90787755,13.0472222 5.00510204,27.9472222 L26.659398,49.5794433 C26.8288429,49.7487156 26.9961134,49.8311767 27.2502781,49.8311767 C27.5022683,49.8311767 27.6717132,49.7465433 27.8411582,49.5794433 L49.4954541,27.9472222 C52.949475,24.4967222 54.4657985,20.5405556 54.4657985,16.7516667 C54.4657985,4.54666667 38.8793546,-6.14555556 27.2502781,4.54666667 L27.25,4.54666667 Z M42.6696071,18.6872222 C40.9838888,18.6872222 39.6370158,17.5088333 39.2155862,15.9940556 L30.7892189,15.9940556 L30.7892189,17.8451667 C30.7892189,18.3508111 30.4525034,18.6871667 29.9463597,18.6871667 L28.6820709,18.6871667 L34.4129128,30.1343889 C34.5823577,30.4707611 34.4976324,30.8917778 34.2434678,31.1435 C33.9914776,31.3952333 33.5700591,31.3952333 33.233327,31.2281333 L30.4527147,29.4594667 L30.4527147,32.4065222 C30.4527147,32.9121667 30.1159993,33.2485222 29.6098556,33.2485222 L24.9762433,33.2485222 C24.4700829,33.2485222 24.1333841,32.91215 24.1333841,32.4065222 L24.1333841,29.4594667 L21.3527719,31.2281333 C21.0160564,31.3974056 20.5946102,31.3974056 20.3426311,31.1435 C20.0906409,30.8917667 20.0059156,30.4707778 20.1731861,30.1343889 L25.904028,18.6871667 L24.6397392,18.6871667 C24.1335788,18.6871667 23.79688,18.3507944 23.79688,17.8451667 L23.79688,15.9940556 L15.2008953,15.9940556 C14.7794602,17.5088333 13.4304239,18.6872222 11.7468744,18.6872222 C9.80912133,18.6872222 8.20810041,17.0878333 8.20810041,15.1520556 C8.20810041,13.2162778 9.80912133,11.6168889 11.7468744,11.6168889 C13.4325928,11.6168889 14.7794657,12.7952778 15.2008953,14.3100556 L23.7123494,14.3100556 L23.7123494,12.4589444 C23.7123494,11.9533 24.0490648,11.6168889 24.5552086,11.6168889 L29.9469826,11.6168889 C30.453143,11.6168889 30.7898417,11.9533167 30.7898417,12.4589444 L30.7898417,14.3100556 L39.3012958,14.3100556 C39.722731,12.7952778 41.0717672,11.6168889 42.7553167,11.6168889 C44.6930698,11.6168889 46.2940907,13.2162778 46.2940907,15.1520556 C46.209371,17.1724444 44.6083723,18.6872222 42.6706193,18.6872222 L42.6696071,18.6872222 Z"
											></path>
									</g>
								</g>
							</g>
					</svg>