<svg width="60" height="23" viewBox="0 0 60 23" fill="none" xmlns="http://www.w3.org/2000/svg">
<g clip-path="url(#clip0_101_134)">
<g clip-path="url(#clip1_101_134)">
<mask id="mask0_101_134" style="mask-type:luminance" maskUnits="userSpaceOnUse" x="0" y="0" width="60" height="23">
<path d="M59.9925 0H0.00524902V22.5312H59.9925V0Z" fill="white"/>
</mask>
<g mask="url(#mask0_101_134)">
<path d="M19.386 8.26562C18.2119 8.26562 16.9012 8.71791 16.6265 10.2068C16.5972 10.3649 16.702 10.4404 16.8031 10.4635L18.0065 10.6077C18.1179 10.6021 18.1934 10.4809 18.2149 10.3669C18.3176 9.85458 18.7391 9.61277 19.2099 9.61277C19.464 9.61277 19.7495 9.70005 19.8999 9.93364C20.0724 10.1939 20.0601 10.5477 20.0601 10.848V11.0246C19.3449 11.1068 18.4034 11.1566 17.7339 11.4579C16.9612 11.8014 16.4186 12.5001 16.4186 13.5274C16.4186 14.8438 17.2251 15.5009 18.2637 15.5009C19.1406 15.5009 19.6253 15.295 20.3014 14.5866C20.5257 14.9203 20.5976 15.0717 21.0073 15.4208C21.0526 15.4467 21.1049 15.4575 21.1567 15.4518C21.2086 15.4461 21.2573 15.4241 21.2958 15.389V15.4049C21.5423 15.18 21.9905 14.7714 22.2425 14.5547C22.3432 14.4705 22.3211 14.3319 22.2425 14.2179C22.0172 13.8986 21.7774 13.6409 21.7774 13.0469V11.0734C21.7774 10.2376 21.8482 9.46696 21.2481 8.89146C20.7742 8.42579 19.9856 8.26562 19.386 8.26562ZM35.5579 8.26562C34.3834 8.26562 33.0735 8.71791 32.7984 10.2068C32.7694 10.3649 32.8736 10.4404 32.975 10.4635L34.1784 10.6077C34.2899 10.6021 34.366 10.4809 34.3868 10.3669C34.4902 9.85458 34.9112 9.61277 35.3819 9.61277C35.6365 9.61277 35.9215 9.70005 36.0719 9.93364C36.244 10.1939 36.2161 10.5477 36.2161 10.848V11.0246C35.501 11.1068 34.5758 11.1566 33.9058 11.4579C33.1327 11.8014 32.5905 12.5001 32.5905 13.5274C32.5905 14.8438 33.3977 15.5009 34.4358 15.5009C35.3115 15.5009 35.7962 15.295 36.4735 14.5866C36.6971 14.9203 36.7695 15.0717 37.1793 15.4208C37.2717 15.4701 37.3863 15.465 37.4677 15.389V15.4049C37.7141 15.18 38.1625 14.7714 38.4146 14.5547C38.5146 14.4705 38.4915 14.3319 38.4146 14.2179C38.1893 13.8986 37.9493 13.6409 37.9493 13.0469V11.0734C37.9493 10.2376 38.0034 9.46696 37.404 8.89146C36.9298 8.42579 36.1578 8.26562 35.5579 8.26562ZM26.4611 8.32978C25.7023 8.32978 25.1396 8.71279 24.8408 9.53321H24.8249V8.68302C24.8208 8.62472 24.7959 8.56985 24.7545 8.52854C24.7132 8.48719 24.6584 8.46221 24.6001 8.45813H23.4449C23.3814 8.45906 23.3206 8.48474 23.2757 8.52969C23.2307 8.57464 23.205 8.63536 23.2041 8.69893V15.1965C23.2096 15.2543 23.2351 15.3083 23.2761 15.3494C23.3171 15.3904 23.3712 15.4159 23.429 15.4214H24.6642C24.7279 15.4207 24.7887 15.3951 24.8337 15.3501C24.8788 15.3051 24.9044 15.2442 24.905 15.1805V11.731C24.905 10.9789 24.8686 9.95006 25.7552 9.95006C26.6306 9.95006 26.5094 11.0071 26.5094 11.731V15.1805C26.5094 15.3033 26.6095 15.4131 26.7343 15.4214H27.9695C28.0331 15.4207 28.094 15.3951 28.139 15.3501C28.184 15.3051 28.2096 15.2442 28.2102 15.1805V11.731C28.2102 11.3619 28.1952 10.8244 28.3228 10.4958C28.4496 10.1672 28.7611 9.9506 29.061 9.9506C29.4184 9.9506 29.691 10.0753 29.7828 10.5122C29.8403 10.772 29.8147 11.4584 29.8147 11.7316V15.1811C29.8147 15.3038 29.9147 15.4136 30.0394 15.4219H31.2747C31.3384 15.4212 31.3992 15.3956 31.4442 15.3506C31.4893 15.3056 31.5149 15.2447 31.5155 15.1811V11.0739C31.5155 10.3762 31.5859 9.58401 31.1947 9.03622C30.8491 8.54439 30.2844 8.33029 29.7668 8.33029C29.041 8.33029 28.3659 8.71329 28.0665 9.53371C27.7205 8.71329 27.2328 8.32978 26.4611 8.32978ZM47.4626 8.32978C45.6775 8.32978 44.6873 9.89925 44.6873 11.9236C44.6873 13.934 45.6668 15.5492 47.4626 15.5492C49.1901 15.5492 50.2863 13.971 50.2863 11.9872C50.2863 9.93725 49.2935 8.32978 47.4626 8.32978ZM54.5055 8.32978C53.6527 8.32978 53.1655 8.75641 52.8211 9.6451H52.805V8.65015C52.783 8.54952 52.6881 8.4797 52.5802 8.47353H51.441C51.3821 8.47221 51.325 8.49282 51.2805 8.53135C51.236 8.56985 51.2073 8.62356 51.2002 8.68197V15.1795C51.2013 15.2403 51.225 15.2986 51.2664 15.343C51.3081 15.3875 51.3644 15.415 51.425 15.4203H52.6445C52.7078 15.4194 52.7687 15.3937 52.8137 15.3488C52.8585 15.3038 52.8841 15.2431 52.8853 15.1795V11.6823C52.8853 11.2438 52.9222 10.8439 53.0937 10.447C53.2322 10.1323 53.4998 9.93364 53.7995 9.93364C54.6506 9.93364 54.5695 10.9712 54.5695 11.6823V15.2119C54.5774 15.2671 54.6041 15.318 54.645 15.356C54.6861 15.3939 54.7387 15.4166 54.7945 15.4203H56.0298C56.1509 15.4203 56.2562 15.3279 56.2706 15.2119V11.1206C56.2706 10.4917 56.272 9.61789 55.9495 9.09886C55.6042 8.53873 55.0573 8.32978 54.5055 8.32978ZM39.6811 8.44221C39.5558 8.44221 39.4566 8.54183 39.4564 8.68302V9.61328C39.4566 9.75241 39.5527 9.85304 39.6811 9.85408H41.7988L39.3761 13.4319C39.2282 13.6625 39.2158 13.9238 39.2158 14.0737V15.0204C39.2158 15.1569 39.3643 15.3053 39.5045 15.2288C40.8851 14.4752 42.5398 14.5419 43.7883 15.2129C43.9398 15.2955 44.0933 15.1405 44.0933 15.0045V14.0095C44.0896 13.9361 44.0671 13.865 44.0277 13.803C43.9882 13.7411 43.9333 13.6905 43.8683 13.6563C43.1599 13.2486 42.3375 13.1239 41.558 13.1429L43.6598 10.0625C43.8545 9.78578 43.9635 9.61894 43.9649 9.48493V8.68302C43.9649 8.5449 43.8705 8.44221 43.7401 8.44221H39.6811ZM47.4626 9.66155C47.8538 9.66155 48.1424 9.83608 48.281 10.2874C48.4413 10.8074 48.4576 11.4569 48.4576 12.0042C48.4576 12.8379 48.4187 14.2179 47.4626 14.2179C46.496 14.2179 46.4999 12.5094 46.4999 11.7151C46.4999 10.923 46.5529 9.66155 47.4626 9.66155ZM20.0437 12.036V12.3086C20.0437 12.802 20.0616 13.2173 19.8188 13.6563C19.6227 14.0131 19.3146 14.2338 18.9686 14.2338C18.4963 14.2338 18.2144 13.8509 18.2144 13.3036C18.2149 12.2244 19.1524 12.036 20.0437 12.036ZM36.2155 12.036V12.3086C36.2155 12.802 36.2335 13.2173 35.9908 13.6563C35.7948 14.0131 35.488 14.2338 35.1405 14.2338C34.6679 14.2338 34.3865 13.8509 34.3865 13.3036C34.3868 12.2244 35.3233 12.036 36.2155 12.036Z" fill="white"/>
<path d="M44.2215 15.6294V16.5597H44.8475V15.6294H44.2215ZM26.0761 15.7896V22.4155H26.6537V21.822C26.7769 22.0571 26.917 22.2332 27.087 22.3513C27.2564 22.4694 27.451 22.5279 27.6645 22.5279C28.0886 22.5279 28.4547 22.3112 28.7715 21.8702C29.0881 21.4292 29.2531 20.79 29.2531 19.9768C29.2531 19.4444 29.1847 19.0034 29.0447 18.6291C28.9044 18.2559 28.7171 17.9782 28.4828 17.7949C28.2488 17.6116 27.9829 17.5064 27.6969 17.5064C27.4981 17.5042 27.303 17.5599 27.1352 17.6665C26.9684 17.7733 26.8334 17.9474 26.7019 18.164V15.7896H26.0761ZM32.0126 17.3462C31.5772 17.3462 31.2316 17.475 30.9858 17.7312C30.7399 17.9869 30.6165 18.317 30.6165 18.7262C30.6165 18.9639 30.67 19.1646 30.7607 19.352C30.8517 19.5394 30.9827 19.6898 31.146 19.8013C31.3102 19.9126 31.6378 20.059 32.1244 20.2181C32.4613 20.3265 32.6624 20.4189 32.7502 20.4907C32.8775 20.596 32.9429 20.7341 32.9429 20.924C32.9429 21.1438 32.8668 21.3271 32.7178 21.4693C32.5694 21.6125 32.3633 21.6777 32.092 21.6777C31.8211 21.6777 31.5978 21.6017 31.4344 21.4369C31.2711 21.2721 31.1829 21.0216 31.146 20.6828L30.5199 20.8111C30.6613 21.8405 31.1747 22.3518 32.0602 22.3513C32.5325 22.3513 32.8939 22.2173 33.1671 21.9344C33.4403 21.6515 33.5839 21.2696 33.5839 20.8111C33.5839 20.5637 33.5402 20.349 33.4557 20.1694C33.371 19.9897 33.2544 19.8567 33.1026 19.7525C32.9499 19.6488 32.61 19.5101 32.0915 19.3356C31.7146 19.2037 31.4938 19.1072 31.4181 19.0471C31.2902 18.9454 31.2254 18.8068 31.2254 18.6302C31.2254 18.4495 31.2851 18.2965 31.4181 18.181C31.551 18.0654 31.7558 18.0044 32.0278 18.0044C32.5063 18.0044 32.7739 18.2672 32.8299 18.7904L33.4397 18.6938C33.3977 18.3627 33.3253 18.1014 33.2149 17.9238C33.1045 17.7461 32.9412 17.5962 32.7333 17.4904C32.5258 17.3852 32.2872 17.3462 32.0126 17.3462ZM35.8472 17.3462C35.3456 17.3462 34.9225 17.5526 34.5953 17.9879C34.2683 18.4233 34.1139 19.0538 34.1139 19.8814C34.1139 20.6786 34.2714 21.3034 34.5953 21.7265C34.9194 22.149 35.3394 22.3523 35.8629 22.3523C36.2795 22.3523 36.6242 22.2276 36.9056 21.9673C37.1875 21.707 37.392 21.324 37.4993 20.8121L36.8574 20.6997C36.6732 21.3553 36.3333 21.6772 35.8624 21.6782C35.5627 21.6782 35.3177 21.5509 35.1084 21.2773C34.8989 21.0031 34.7803 20.5965 34.755 20.0579H37.5145V19.8331C37.5145 19.0234 37.3534 18.4156 37.0329 17.9879C36.7138 17.5603 36.3251 17.3462 35.8472 17.3462ZM39.6493 17.3462C39.4995 17.3462 39.3685 17.397 39.2483 17.5064C39.1283 17.6157 38.9917 17.8426 38.8475 18.1799V17.4417H38.2856V22.2389H38.9114V19.7366C38.9114 19.3874 38.9444 19.0517 39.0241 18.7416C39.0691 18.5639 39.1545 18.4238 39.2649 18.3247C39.375 18.2256 39.5009 18.1805 39.6338 18.1805C39.7811 18.1805 39.9276 18.2395 40.083 18.3571L40.2914 17.6029C40.0729 17.4283 39.8588 17.3462 39.6493 17.3462ZM47.3178 17.3462C46.8224 17.3462 46.4143 17.5546 46.0986 17.972C45.7837 18.3889 45.617 19.0152 45.617 19.849C45.617 20.6761 45.7854 21.3029 46.0986 21.726C46.4112 22.1485 46.8024 22.3518 47.2854 22.3518C47.6845 22.3518 48.0273 22.2034 48.3123 21.9026C48.5973 21.6017 48.7708 21.1592 48.8418 20.5873L48.2317 20.4907C48.1867 20.8999 48.0797 21.1941 47.911 21.3892C47.742 21.5832 47.5386 21.6777 47.3009 21.6777C46.9982 21.6777 46.7402 21.5365 46.5467 21.2444C46.3532 20.9523 46.2583 20.4851 46.2583 19.8326C46.2583 19.2001 46.3605 18.7437 46.5633 18.4526C46.7661 18.1615 47.0243 18.0033 47.3333 18.0033C47.5398 18.0033 47.7158 18.0834 47.8625 18.2441C48.0104 18.4043 48.1084 18.6589 48.1675 18.9824L48.7776 18.854C48.7041 18.3489 48.5418 17.9674 48.2799 17.7148C48.0183 17.4617 47.7003 17.3462 47.3178 17.3462ZM50.8958 17.3462C50.3942 17.3462 49.9711 17.5526 49.6442 17.9879C49.3172 18.4233 49.1626 19.0538 49.1626 19.8814C49.1626 20.6786 49.32 21.3034 49.6442 21.7265C49.9686 22.149 50.388 22.3523 50.9115 22.3523C51.327 22.3523 51.6725 22.2276 51.9545 21.9673C52.2358 21.707 52.44 21.324 52.5479 20.8121L51.906 20.6997C51.7218 21.3553 51.3968 21.6772 50.9276 21.6782C50.6277 21.6782 50.3669 21.5509 50.1576 21.2773C49.9481 21.0031 49.8301 20.5965 49.8041 20.0579H52.5637V19.8331C52.5637 19.0234 52.4026 18.4156 52.0823 17.9879C51.7638 17.5603 51.3743 17.3462 50.8958 17.3462ZM54.6019 17.3462C54.1656 17.3462 53.8212 17.475 53.575 17.7312C53.3286 17.9869 53.2061 18.317 53.2061 18.7262C53.2061 18.9639 53.2435 19.1646 53.3345 19.352C53.4246 19.5389 53.555 19.6898 53.7195 19.8013C53.8826 19.9126 54.2118 20.059 54.6979 20.2181C55.0336 20.3265 55.2519 20.4189 55.3398 20.4907C55.4671 20.596 55.5321 20.7341 55.5321 20.924C55.5321 21.1438 55.4561 21.3271 55.3074 21.4693C55.1595 21.6125 54.9525 21.6777 54.6816 21.6777C54.4098 21.6777 54.187 21.6017 54.024 21.4369C53.8606 21.2721 53.7553 21.0216 53.7189 20.6828L53.0931 20.8111C53.2342 21.8405 53.7465 22.3518 54.6331 22.3513C55.106 22.3513 55.4829 22.2173 55.7566 21.9344C56.0301 21.6515 56.1734 21.2696 56.1734 20.8111C56.1734 20.5637 56.1298 20.349 56.045 20.1694C55.9605 19.9897 55.8284 19.8567 55.6761 19.7525C55.524 19.6488 55.1995 19.5101 54.681 19.3356C54.3042 19.2037 54.0676 19.1072 53.991 19.0471C53.8631 18.9454 53.7984 18.8068 53.7984 18.6302C53.7984 18.4495 53.8738 18.2965 54.0071 18.181C54.14 18.0654 54.3459 18.0044 54.6168 18.0044C55.0953 18.0044 55.3629 18.2672 55.4186 18.7904L56.0287 18.6938C55.9862 18.3627 55.9146 18.1014 55.8039 17.9238C55.6859 17.7379 55.5195 17.588 55.3223 17.4904C55.1164 17.3852 54.8762 17.3462 54.6019 17.3462ZM40.2909 17.4422L41.687 22.2394H42.2804L43.6765 17.4422H43.0346L42.2162 20.3783C42.117 20.7331 42.03 21.0396 41.9754 21.2927C41.9072 20.9738 41.8419 20.6391 41.7506 20.3141L40.9488 17.4422H40.2909ZM44.2215 17.4422V22.2394H44.8475V17.4422H44.2215ZM23.6539 17.5064C23.1574 17.5064 22.758 17.7292 22.4346 18.164C22.1106 18.5994 21.9371 19.2298 21.9371 20.0574C21.9371 20.8547 22.0973 21.4636 22.4187 21.8862C22.7401 22.3087 23.1677 22.5279 23.6862 22.5279C24.098 22.5279 24.4343 22.3872 24.713 22.1269C24.9913 21.8666 25.1838 21.4837 25.2906 20.9718L24.6648 20.8753C24.4825 21.5309 24.1514 21.8528 23.6862 21.8538C23.389 21.8538 23.1395 21.7265 22.932 21.4529C22.7246 21.1787 22.604 20.7721 22.5788 20.2335H25.306L25.3219 20.0087C25.3219 19.199 25.1576 18.5752 24.8404 18.1476C24.5231 17.7199 24.1267 17.5064 23.6539 17.5064ZM16.6106 17.6188L17.7339 22.416H18.3916L19.1298 18.7257L19.2582 19.544L19.8517 22.416H20.4934L21.6326 17.6188H21.0392L20.4133 20.3942L20.2049 21.3245L20.0124 20.3942L19.4671 17.6188H18.8254L18.2478 20.4266L18.0553 21.4215L17.8304 20.3947L17.2528 17.6193L16.6106 17.6188ZM56.5432 17.6671V17.8919H57.153V19.4963H57.3938V17.8919H58.0038V17.6671H56.5432ZM58.2441 17.6671V19.4958H58.4688V17.9397L58.9983 19.4958H59.223L59.7523 17.9715V19.4958H59.9931V17.6671H59.6562L59.223 18.9506C59.1794 19.0789 59.1481 19.1718 59.1264 19.2391L59.0301 18.9665L58.5967 17.6671H58.2441ZM35.8305 18.0039C36.1423 18.0039 36.3989 18.1548 36.6008 18.4531C36.7394 18.6574 36.8292 18.9685 36.8574 19.3834H34.7879C34.8073 18.9624 34.9265 18.6374 35.1247 18.3884C35.3227 18.1394 35.5509 18.0039 35.8305 18.0039ZM50.8797 18.0039C51.1904 18.0039 51.4481 18.1548 51.65 18.4531C51.7886 18.6574 51.8784 18.9685 51.9066 19.3834H49.8371C49.8565 18.9624 49.9757 18.6374 50.1739 18.3884C50.3716 18.1404 50.5995 18.0039 50.8797 18.0039ZM23.6539 18.1805C23.9619 18.1805 24.2094 18.3314 24.4081 18.6297C24.5451 18.834 24.6365 19.1451 24.6648 19.5599H22.6271C22.6466 19.139 22.7508 18.7981 22.948 18.5491C23.1436 18.3006 23.3761 18.1805 23.6539 18.1805ZM27.6327 18.1805C27.911 18.1805 28.1476 18.335 28.3386 18.6297C28.5296 18.9249 28.6112 19.3798 28.6112 20.0097C28.6112 20.6232 28.5208 21.0806 28.3228 21.3897C28.1245 21.6987 27.8884 21.8548 27.6327 21.8548C27.4448 21.8548 27.2738 21.7917 27.1193 21.6623C26.9643 21.5329 26.8508 21.3476 26.7661 21.1007C26.6814 20.8537 26.6378 20.4738 26.6378 19.9773C26.6378 19.3926 26.742 18.9547 26.9427 18.6456C27.1434 18.3365 27.377 18.1805 27.6327 18.1805Z" fill="white"/>
<path d="M7.61791 13.095L5.22751 14.1218L7.44129 15.0685L10.0083 14.1218L7.61791 13.095ZM4.02412 14.3785L3.94402 18.9991L7.44129 20.5393V15.7421L4.02412 14.3785ZM11.2117 14.3785L8.05121 15.5819V20.106L11.2117 18.8225V14.3785ZM14.9821 0.00341797L12.5753 1.03021L14.8055 1.97692L17.3724 1.03021L14.9821 0.00341797ZM11.645 1.36751V5.98809L14.6288 6.85469L14.7254 2.65101L11.645 1.36751ZM18.3192 1.62421L15.4955 2.82763V7.3681L18.3192 6.0846V1.62421ZM3.67911 6.50661L1.28874 7.53342L3.50252 8.48013L6.06951 7.53342L3.67911 6.50661ZM0.0853389 7.79011L0.00524902 12.4107L3.50252 13.9509V9.1537L0.0853389 7.79011ZM7.2729 7.79011L4.11241 8.99353V13.5176L7.2729 12.2341V7.79011ZM11.3801 6.33616L8.9897 7.36297L11.2035 8.30968L13.7705 7.36297L11.3801 6.33616ZM7.7863 7.61966L7.7062 12.2402L11.2035 13.7804V8.98376L7.7863 7.61966ZM14.9739 7.61966L11.8134 8.82308V13.3471L14.9739 12.0636V7.61966ZM22.5039 0.00341797L20.1135 1.03021L22.3272 1.97692L24.8942 1.03021L22.5039 0.00341797ZM18.9101 1.28691L18.83 5.90748L22.3272 7.44769V2.65101L18.9101 1.28691ZM26.0976 1.28691L22.9372 2.49031V7.01438L26.0976 5.73086V1.28691Z" fill="white"/>
</g>
</g>
</g>
<defs>
<clipPath id="clip0_101_134">
<rect width="60" height="22.5312" fill="white"/>
</clipPath>
<clipPath id="clip1_101_134">
<rect width="59.9895" height="22.5312" fill="white" transform="translate(0.00524902)"/>
</clipPath>
</defs>
</svg>
