 <svg class="mb-30" width="110px" height="110px" viewBox="0 0 110 110" version="1.1"
						 xmlns="http://www.w3.org/2000/svg" xmlns:xlink="http://www.w3.org/1999/xlink">
						  <g class="vector" transform="translate(-580.000000, -1068.000000)" fill="#1077DA"> svg-img-link
							<g transform="translate(580.000000, 1068.000000)">    
									<rect opacity="0.1" x="0" y="0" width="110" height="110" rx="55">
									 </rect>  round-shape 
									<g transform="translate(51.500000, 50.000000) scale(-1, 1) translate(-51.500000, -50.000000) translate(26.000000, 20.000000)"> svg-img-transformation 
										<path
											d="M28.9207317,16.9386875 L16.2341707,16.9386875 C15.3644341,16.9386875 14.6161024,17.68825 14.6161024,18.56475 L14.6161024,31.3135 C14.6161024,32.1875 15.3619463,32.9395 16.2341707,32.9395 L28.9207317,32.9395 C29.7904683,32.9395 30.5388,32.19 30.5388,31.3135 L30.5388,18.56225 C30.5388,17.62475 29.8536585,16.9386875 28.9207317,16.9386875 L28.9207317,16.9386875 Z M27.1180683,23.25 L22.3902439,28.3135 C22.1424337,28.562525 21.831458,28.689475 21.5205073,28.689475 C21.2095566,28.689475 20.8985561,28.5649625 20.6507707,28.3135 L18.0366476,25.5620625 C17.6017668,25.061575 17.6017668,24.3120625 18.0998129,23.8750625 C18.597859,23.43805 19.3437154,23.43805 19.7785837,23.9385375 L21.4573544,25.7500375 L25.3129544,21.6240375 C25.7478351,21.12355 26.5568568,21.12355 26.9917251,21.5605625 C27.5529366,22.0000125 27.5529366,22.7495 27.1180559,23.25 L27.1180683,23.25 Z"
											transform="translate(22.577451, 24.939094) scale(-1, 1) translate(-22.577451, -24.939094) ">
										 </path>right-sign
										  <path
											d="M50.2542805,30.68875 L44.6567195,22.126875 C44.3457439,21.6263875 44.2218388,21.064875 44.1586734,20.439875 C43.1625563,9.189875 33.77271,0.315499547 22.3269417,0.315499547 C10.1988929,0.31305625 0.373929512,10.188625 0.373929512,22.376125 C0.373929512,29.627375 3.85785146,36.687375 9.20501488,41.31425 C9.8269661,41.875775 10.2618344,42.62775 10.2618344,43.50175 L10.2618344,56.126125 C10.2618344,57.1271256 11.0076783,57.9376256 12.0037954,58.064625 L30.8495393,59.751625 C31.969549,59.8761375 32.9024759,58.938625 32.9024759,57.813125 L32.9000502,48.814375 C32.9000502,48.25285 33.3980963,47.752375 33.9568698,47.752375 L40.5507966,47.752375 C42.6037332,47.752375 44.2193137,46.126375 44.2193137,44.065875 L44.2217393,35.189 C44.2217393,34.813025 44.5327149,34.4395 44.9675832,34.4395 L48.201232,34.4395 C50.1302759,34.5005375 51.310988,32.3130625 50.2541685,30.6895 L50.2542805,30.68875 Z M36.4475854,23.75 C37.1327268,23.75 37.6282976,24.311525 37.6282976,24.9365 C37.6282976,25.625 37.0695117,26.123 36.4475854,26.123 L32.9636634,26.1254437 L32.9636634,28.9379437 L36.4475854,28.9379437 C37.1327268,28.9379437 37.6282976,29.4994687 37.6282976,30.1244437 C37.6282976,30.8129437 37.0695117,31.3109437 36.4475854,31.3109437 L32.9636634,31.3133812 C32.900498,33.5008812 31.161,35.2513812 28.9841707,35.3123812 L28.9841707,38.8133812 C28.9841707,39.5018812 28.4253849,39.9998812 27.8034585,39.9998812 C27.1815322,39.9998812 26.6227463,39.4383562 26.6227463,38.8133812 L26.6227463,35.3123812 L23.8239659,35.3123812 L23.8239659,38.8133812 C23.8239659,39.5018812 23.26518,39.9998812 22.6432537,39.9998812 C21.9581122,39.9998812 21.4625415,39.4383562 21.4625415,38.8133812 L21.4625415,35.3123812 L18.663761,35.3123812 L18.663761,38.8133812 C18.663761,39.5018812 18.1049751,39.9998812 17.4830488,39.9998812 C16.8562463,39.9998812 16.1711049,39.4993937 16.1711049,38.8743812 L16.1711049,35.3733812 C13.9942756,35.3099062 12.2523146,33.5618812 12.1916122,31.3743812 L8.70769024,31.3743812 C8.02254878,31.3743812 7.52697805,30.8128562 7.52697805,30.1878812 C7.52697805,29.4993812 8.0857639,29.0013812 8.70769024,29.0013812 L12.1916122,29.0013812 L12.1916122,26.1888812 L8.70769024,26.1864437 C8.02254878,26.1864437 7.52697805,25.6249187 7.52697805,24.9999437 C7.52697805,24.3114437 8.0857639,23.8134437 8.70769024,23.8134437 L12.1916122,23.8134437 L12.1916122,21.0009437 L8.70769024,21.0009437 C8.02254878,21.0009437 7.52697805,20.4394187 7.52697805,19.8144437 C7.52697805,19.1894687 8.0857639,18.6279438 8.70769024,18.6279438 L12.1916122,18.6279438 C12.2547776,16.4404438 13.9942756,14.6899437 16.1711049,14.6289437 L16.1711049,11.1279438 C16.1711049,10.4394437 16.7298907,9.94144375 17.3518171,9.94144375 C17.9737434,9.94144375 18.5325293,10.5029688 18.5325293,11.1279438 L18.5325293,14.6289437 L21.3313098,14.6289437 L21.3313098,11.1279438 C21.3313098,10.4394437 21.8900956,9.94144375 22.512022,9.94144375 C23.1971634,9.94144375 23.6927341,10.5029688 23.6927341,11.1279438 L23.6927341,14.6289437 L26.4915146,14.6289437 L26.4915146,11.1279438 C26.4915146,10.4394437 27.0503005,9.94144375 27.6722268,9.94144375 C28.2941532,9.94144375 28.852939,10.5029688 28.852939,11.1279438 L28.852939,14.6289437 C31.0297683,14.6924187 32.7717293,16.4404438 32.8324317,18.6279438 L36.3163537,18.6279438 C37.0014951,18.6279438 37.4970659,19.1894687 37.4970659,19.8144437 C37.4970659,20.4394187 36.93828,21.0009437 36.3163537,21.0009437 L32.9636634,21.0009437 L32.9636634,23.7499437 L36.4475854,23.75 Z"
										 ></path> calling svg-img 
									</g>
								</g>
							</g>
					</svg> 