<svg class="mb-30" width="110px" height="110px" viewBox="0 0 110 110" version="1.1"
						xmlns="http://www.w3.org/2000/svg" xmlns:xlink="http://www.w3.org/1999/xlink">
							<g class="vector" transform="translate(-190.000000, -1068.000000)" fill="#1077DA">
								<g transform="translate(190.000000, 1068.000000)">
									<rect opacity="0.1" x="0" y="0" width="110" height="110" rx="55">
									</rect>
									<g transform="translate(17.000000, 30.000000)">
										<path
											d="M66.9021739,26.680602 C67.1569314,25.6681438 67.2810452,24.5282609 67.2810452,23.3883779 C67.2810452,14.7721572 60.31449,7.80560201 51.6982692,7.80560201 C48.1512793,7.80560201 44.8557943,8.94548495 42.1974331,11.0978261 C42.3248077,11.476689 42.4521906,11.7314465 42.576296,12.1102843 L44.2224498,12.3650418 C45.6170987,12.6197993 46.6295569,13.8837709 46.6295569,15.150995 L46.6295569,20.3440552 C46.6295569,21.738704 45.6170987,22.8785033 44.2224498,23.1300084 L42.576296,23.3847659 C42.4489214,23.7636288 42.1974331,24.2731438 42.0700502,24.65199 L43.0825084,26.0466388 C43.8435117,27.1865217 43.7161288,28.7085117 42.7036455,29.7209699 L39.0325753,33.3920401 C38.5263294,33.898286 37.7653512,34.2804181 37.0043144,34.2804181 C36.370694,34.2804181 35.8644314,34.1530435 35.3581605,33.7741722 L34.0909365,32.8857943 C33.7120736,33.0131689 33.3299331,33.2646572 32.8237124,33.3920401 L32.5689548,35.038194 C32.3141973,36.4328428 31.174306,37.445301 29.7830017,37.445301 L24.5899415,37.445301 C23.1952926,37.445301 22.0554933,36.4328428 21.8039883,35.1655351 L21.4251254,33.3920401 C21.0462542,33.2646656 20.5367475,33.0131773 20.1579013,32.8857943 L18.8906773,33.7741722 C18.3844314,34.1530351 17.8782191,34.2804181 17.2445234,34.2804181 C16.4835201,34.2804181 15.7257943,34.0256605 15.2162625,33.3920401 L11.5419314,29.717709 C10.6535535,28.8293311 10.4020485,27.310602 11.1630686,26.2981438 C5.08163043,26.6770067 0.139657191,31.8733946 0.139657191,38.0790803 C0.139657191,44.5394482 5.46014214,49.8600167 11.9205936,49.8600167 L63.8612291,49.8600167 C70.321597,49.8600167 75.6421677,44.5395318 75.6421677,38.0790803 C75.6454314,32.7618562 71.9710953,28.0715552 66.902199,26.6802508 L66.9021739,26.680602 Z M51.1956522,42.6421405 L24.590301,42.6421405 C24.0840552,42.6421405 23.5778428,42.2632776 23.5778428,41.6296823 C23.5778428,41.1234365 23.9567057,40.6172241 24.590301,40.6172241 L51.3202341,40.6172241 C51.8264799,40.6172241 52.3326923,40.996087 52.3326923,41.6296823 C52.2085786,42.1359281 51.8297157,42.6421405 51.1960702,42.6421405 L51.1956522,42.6421405 Z"
											></path>
										<path
											d="M43.84699,14.3904682 L41.0610368,13.8842224 C40.8062793,12.8717642 40.3000334,11.7318813 39.7938127,10.8435033 L41.4399666,8.56373746 C41.6947241,8.18486622 41.6947241,7.67535953 41.312592,7.29651338 L37.6382609,3.62218227 C37.259398,3.2433194 36.7498829,3.2433194 36.3710368,3.49480769 L34.0912709,5.14096154 C33.0788127,4.63471572 32.06301,4.12850334 31.0505518,3.87373746 L30.544306,1.08778428 C30.4169314,0.581538462 30.0380602,0.326780936 29.6559281,0.326780936 L24.4628679,0.326780936 C23.9566221,0.326780936 23.57449,0.705643813 23.57449,1.08778428 L23.0682441,3.87373746 C22.055786,4.12849498 21.0399833,4.6347408 20.0275251,5.14096154 L17.7477592,3.49480769 C17.3688963,3.24005017 16.8593813,3.24005017 16.4805351,3.62218227 L12.806204,7.29651338 C12.4273411,7.67538462 12.4273411,8.1848913 12.6788294,8.56373746 L14.3249833,10.8435033 C13.8187375,11.8559615 13.3125251,12.8717642 13.0577592,13.8842224 L10.402408,14.3904682 C9.89616221,14.5178428 9.64140468,14.896714 9.64140468,15.2788462 L9.64140468,20.4719064 C9.64140468,20.9781522 10.0202676,21.3602843 10.402408,21.3602843 L13.1883612,21.8665301 C13.4431187,22.754908 13.8219816,23.6400251 14.2008194,24.528403 C14.328194,24.6557776 14.328194,24.7831605 14.4555769,25.0346488 L12.8094231,27.3144147 C12.5546656,27.6932776 12.5546656,28.2027926 12.9367977,28.5816388 L16.6111288,32.2559699 C16.9899916,32.6348328 17.4995067,32.6348328 17.8783528,32.3833445 L20.1581187,30.7371906 C21.1705769,31.2434365 22.1863796,31.7496488 23.1988378,32.0044147 L23.7050836,34.7903679 C23.8324582,35.2966137 24.2113294,35.5513712 24.5934615,35.5513712 L29.7865217,35.5513712 C30.2927676,35.5513712 30.6748997,35.1725084 30.6748997,34.7903679 L31.1811455,32.0044147 C32.1936037,31.7496572 33.2094064,31.2434114 34.2218645,30.7371906 L36.5016304,32.3833445 C36.8804933,32.638102 37.3900084,32.638102 37.7688545,32.2559699 L41.4431856,28.5816388 C41.8220485,28.2027759 41.8220485,27.6932609 41.5705602,27.3144147 L39.9244064,25.0346488 C40.4306522,24.0221906 40.9368645,23.006388 41.1916304,21.9939298 L43.9775836,21.4876839 C44.4838294,21.3603094 44.738587,20.9814381 44.738587,20.599306 L44.738587,15.4062458 C44.6079431,14.8967308 44.3531856,14.5178679 43.8469482,14.3905268 L43.84699,14.3904682 Z M27.1245819,11.9833612 C29.4043478,11.9833612 31.3051839,13.2505853 32.4450669,15.151505 C32.9513127,16.0398829 33.0786873,16.925 33.0786873,17.9374582 C33.0786873,21.2296823 30.4168144,23.8915552 27.1245903,23.8915552 C23.8323662,23.8915552 21.1704933,21.2296823 21.1704933,17.9374582 C21.1704933,17.3038378 21.2978679,16.6702341 21.5493562,15.9091973 C22.3103595,13.5053512 24.5900753,11.9833612 27.124607,11.9833612 L27.1245819,11.9833612 Z"
                                        ></path>
									</g>
								</g>
							</g>
					</svg> 		