 <svg class="mb-30" width="110px" height="110px" viewBox="0 0 110 110" version="1.1"
						xmlns="http://www.w3.org/2000/svg" xmlns:xlink="http://www.w3.org/1999/xlink">
							<g class="vector" transform="translate(-190.000000, -1720.000000)" fill="#1077DA">
								<g transform="translate(190.000000, 1720.000000)">
									<rect opacity="0.1" x="0" y="0" width="110" height="110" rx="55">
									</rect>
									<path
										d="M79.5943321,76.8787433 C79.8100183,76.8787433 79.984229,77.0529487 79.984229,77.2686403 L79.984229,79.6101031 C79.984229,79.8257893 79.8100236,80 79.5943321,80 L30.4056679,80 C30.1899817,80 30.015771,79.8257893 30.015771,79.6101031 L30.015771,77.2686403 C30.015771,77.0529541 30.1899764,76.8787433 30.4056679,76.8787433 L79.5943321,76.8787433 Z M59.6349305,45.8114362 C60.4976753,45.8114362 61.1965782,46.5103391 61.1965782,47.3730839 L61.1965782,72.3576421 C61.1965782,73.2203869 60.4976753,73.9192898 59.6349305,73.9192898 L50.2652566,73.9192898 C49.4025118,73.9192898 48.7036089,73.2203869 48.7036089,72.3576421 L48.7036089,47.3730839 C48.7036089,46.5103391 49.4025118,45.8114362 50.2652566,45.8114362 L59.6349305,45.8114362 Z M75.268397,52.0084391 C76.1311418,52.0084391 76.8300447,52.707342 76.8300447,53.5700868 L76.8300447,72.3078418 C76.8300447,73.1705866 76.1290712,73.8694895 75.268397,73.8694895 L65.8987231,73.8694895 C65.0359783,73.8694895 64.3370754,73.1705866 64.3370754,72.3078418 L64.3370754,53.5700868 C64.3370754,52.707342 65.0359783,52.0084391 65.8987231,52.0084391 L75.268397,52.0084391 Z M44.0851369,61.3762016 C44.9478817,61.3762016 45.6467846,62.0771751 45.6467846,62.9378494 L45.6467846,72.3075232 C45.6467846,73.170268 44.9478817,73.8691709 44.0851369,73.8691709 L34.7154631,73.8691709 C33.8527183,73.8691709 33.1538153,73.170268 33.1538153,72.3075232 L33.1538153,62.9378494 C33.1538153,62.0751046 33.8527183,61.3762016 34.7154631,61.3762016 L44.0851369,61.3762016 Z M54.7885144,30 C57.3767488,30 59.4734576,32.0967088 59.4734576,34.6849431 C59.4734576,34.7554546 59.4568663,34.819749 59.4527188,34.8881846 L67.0454038,37.9638034 C67.9019369,36.9973699 69.140042,36.3772555 70.5337067,36.3772555 C73.121941,36.3772555 75.2186498,38.4739643 75.2186498,41.0621986 C75.2186498,43.6483624 73.121941,45.7450712 70.5337067,45.7450712 C67.9454192,45.7450712 65.8487105,43.6483624 65.8487105,41.0601281 C65.8487105,40.9896166 65.8653017,40.9253222 65.8694492,40.8568866 L58.2788879,37.7833384 C57.4202842,38.7497718 56.1821791,39.3698862 54.7885144,39.3698862 C54.0875409,39.3698862 53.4280323,39.2060497 52.8307474,38.928145 L43.6224732,48.3705549 C43.9294139,48.9948105 44.1181347,49.6875016 44.1181347,50.42994 C44.1181347,53.0181743 42.0214259,55.1148831 39.4331915,55.1148831 C36.8449572,55.1148831 34.7482484,53.0181743 34.7482484,50.42994 C34.7482484,47.8417056 36.8449572,45.7449969 39.4331915,45.7449969 C40.134165,45.7449969 40.7936737,45.9088334 41.3909586,46.1867381 L50.5992328,36.7443282 C50.2922921,36.1200726 50.1035713,35.4273815 50.1035713,34.6849431 C50.1035713,32.0987793 52.2002801,30 54.7885144,30 Z"
										></path>
								</g>
							</g>
					</svg> 