<svg width="120" height="21" viewBox="0 0 120 21" fill="none" xmlns="http://www.w3.org/2000/svg">
<g clip-path="url(#clip0_101_116)">
<mask id="mask0_101_116" style="mask-type:luminance" maskUnits="userSpaceOnUse" x="0" y="0" width="120" height="21">
<path d="M119.835 0H0.0187988V21H119.835V0Z" fill="white"/>
</mask>
<g mask="url(#mask0_101_116)">
<path d="M14.793 6.33603H15.4661L17.3842 4.41711L17.4785 3.60241C16.3796 2.63216 15.0516 1.95814 13.62 1.64406C12.1884 1.32997 10.7003 1.38619 9.29646 1.80738C7.89259 2.22858 6.6192 3.00084 5.59663 4.05126C4.57404 5.10165 3.83602 6.39549 3.45227 7.81057C3.66595 7.72295 3.90267 7.70875 4.12529 7.77018L7.96165 7.13726C7.96165 7.13726 8.15682 6.8141 8.25778 6.83428C9.0798 5.93115 10.2158 5.37652 11.4332 5.28388C12.6506 5.19127 13.8574 5.56767 14.8065 6.33603H14.793Z" fill="white"/>
<path d="M20.1169 7.81079C19.676 6.18655 18.7707 4.72634 17.5122 3.60938L14.82 6.3026C15.3811 6.76124 15.8308 7.34134 16.1351 7.99916C16.4393 8.65696 16.5904 9.37532 16.5767 10.1001V10.5781C16.8913 10.5781 17.2029 10.6401 17.4936 10.7606C17.7843 10.881 18.0484 11.0576 18.2709 11.2801C18.4934 11.5027 18.6699 11.767 18.7903 12.0578C18.9107 12.3486 18.9727 12.6603 18.9727 12.9751C18.9727 13.2898 18.9107 13.6015 18.7903 13.8923C18.6699 14.1832 18.4934 14.4474 18.2709 14.67C18.0484 14.8925 17.7843 15.0691 17.4936 15.1896C17.2029 15.31 16.8913 15.372 16.5767 15.372H11.7846L11.3068 15.8568V18.7318L11.7846 19.2099H16.5767C17.9148 19.2203 19.2208 18.7996 20.3014 18.0099C21.382 17.2202 22.1799 16.1036 22.5769 14.8251C22.974 13.5467 22.9491 12.1743 22.5061 10.9111C22.0631 9.64785 21.2254 8.56083 20.1169 7.81079Z" fill="white"/>
<path d="M6.98582 19.1827H11.7779V15.3449H6.98582C6.64438 15.3448 6.30699 15.2713 5.99643 15.1294L5.32341 15.3381L3.39177 17.257L3.22351 17.9303C4.30672 18.7486 5.62848 19.1886 6.98582 19.1827Z" fill="white"/>
<path d="M6.9858 6.73344C5.68737 6.74121 4.4238 7.15446 3.37154 7.9155C2.3193 8.67654 1.53093 9.74736 1.11655 10.9784C0.702168 12.2094 0.68247 13.5392 1.0602 14.7819C1.43794 16.0247 2.19424 17.1184 3.22349 17.9103L6.00316 15.1296C5.64991 14.9699 5.34066 14.7269 5.10194 14.4214C4.86322 14.1159 4.70215 13.757 4.63256 13.3756C4.56298 12.9941 4.58692 12.6014 4.70236 12.2313C4.81781 11.8611 5.02133 11.5245 5.2954 11.2503C5.56948 10.9761 5.90598 10.7725 6.276 10.657C6.64602 10.5415 7.03853 10.5176 7.41984 10.5872C7.80118 10.6568 8.15991 10.8179 8.4653 11.0568C8.77067 11.2956 9.01359 11.6049 9.17318 11.9583L11.9528 9.17755C11.3694 8.41454 10.6175 7.79688 9.75578 7.37286C8.89409 6.94887 7.94605 6.73003 6.9858 6.73344Z" fill="white"/>
<path d="M35.6169 16.503C34.7919 16.5135 33.9732 16.3573 33.2101 16.0438C32.4467 15.7303 31.7545 15.2658 31.1749 14.6783C30.5772 14.1158 30.1026 13.435 29.7816 12.6793C29.4608 11.9236 29.3004 11.1094 29.3106 10.2884C29.3007 9.4674 29.4613 8.65331 29.7824 7.89768C30.1031 7.14202 30.5775 6.46122 31.1749 5.8984C31.7516 5.30481 32.4425 4.83417 33.2059 4.51479C33.9695 4.19543 34.7895 4.03394 35.6169 4.04008C36.4055 4.02955 37.188 4.17592 37.9196 4.47069C38.6509 4.76545 39.3164 5.20269 39.8773 5.75701L38.6793 6.9757C37.859 6.1825 36.7578 5.74672 35.6169 5.76373C35.0253 5.75646 34.4383 5.87244 33.8939 6.10425C33.3492 6.33609 32.8589 6.6787 32.4538 7.11036C32.0328 7.52818 31.7004 8.02696 31.4773 8.57658C31.2542 9.12623 31.1445 9.71538 31.1547 10.3086C31.1497 10.895 31.2621 11.4765 31.4852 12.0188C31.7083 12.5611 32.0375 13.0533 32.4538 13.4664C33.2873 14.2973 34.4118 14.77 35.5886 14.7838C36.7651 14.7976 37.9007 14.3515 38.7533 13.5404C39.2814 12.9621 39.6051 12.2265 39.6755 11.4464H35.6372V9.72279H41.3513C41.4074 10.0699 41.43 10.4217 41.4187 10.7731C41.4542 11.5006 41.3418 12.2277 41.0885 12.9105C40.8352 13.5933 40.4462 14.2176 39.9448 14.7456C39.3872 15.3263 38.7137 15.7829 37.9679 16.0857C37.2224 16.3884 36.4212 16.5306 35.6169 16.503ZM48.9029 15.3583C48.1361 16.0937 47.1147 16.5043 46.0526 16.5043C44.9903 16.5043 43.9692 16.0937 43.2021 15.3583C42.8205 14.9881 42.5199 14.5426 42.3194 14.05C42.1191 13.5574 42.023 13.0284 42.038 12.4968C42.0235 11.9652 42.1196 11.4364 42.3201 10.9439C42.5204 10.4513 42.8207 10.0057 43.2021 9.63524C43.97 8.90142 44.9908 8.4919 46.0526 8.4919C47.1142 8.4919 48.1353 8.90142 48.9029 9.63524C49.2843 10.0057 49.5846 10.4513 49.7851 10.9439C49.9854 11.4364 50.0815 11.9652 50.0673 12.4968C50.081 13.0289 49.9841 13.5581 49.7825 14.0508C49.5809 14.5434 49.279 14.9887 48.896 15.3583H48.9029ZM44.4608 14.2339C44.6648 14.4519 44.9113 14.6256 45.1851 14.7443C45.4589 14.8631 45.7542 14.9244 46.0526 14.9244C46.3508 14.9244 46.6461 14.8631 46.9199 14.7443C47.1937 14.6256 47.4402 14.4519 47.6442 14.2339C47.8668 14.004 48.0408 13.7318 48.1563 13.4335C48.2721 13.1351 48.3267 12.8166 48.3172 12.4968C48.3272 12.1759 48.2729 11.8563 48.1571 11.5567C48.0416 11.2572 47.8673 10.9839 47.6442 10.7529C47.4376 10.5373 47.1895 10.3656 46.9147 10.2484C46.6401 10.1311 46.3445 10.0707 46.0458 10.0707C45.7471 10.0707 45.4515 10.1311 45.1769 10.2484C44.9021 10.3656 44.654 10.5373 44.4474 10.7529C44.2243 10.9839 44.05 11.2572 43.9345 11.5567C43.8188 11.8563 43.7644 12.1759 43.7744 12.4968C43.7657 12.8171 43.8216 13.1359 43.9382 13.4342C44.055 13.7326 44.2304 14.0045 44.454 14.2339H44.4608ZM57.6659 15.3583C56.8991 16.0937 55.8777 16.5043 54.8154 16.5043C53.7533 16.5043 52.7319 16.0937 51.9652 15.3583C51.5835 14.9881 51.2829 14.5426 51.0824 14.05C50.8821 13.5574 50.786 13.0284 50.8007 12.4968C50.7866 11.9652 50.8826 11.4364 51.0829 10.9439C51.2835 10.4513 51.5838 10.0057 51.9652 9.63524C52.7319 8.89988 53.7533 8.48933 54.8154 8.48933C55.8777 8.48933 56.8991 8.89988 57.6659 9.63524C58.0473 10.0057 58.3476 10.4513 58.5479 10.9439C58.7484 11.4364 58.8445 11.9652 58.8303 12.4968C58.845 13.0284 58.749 13.5574 58.5487 14.05C58.3481 14.5426 58.0476 14.9881 57.6659 15.3583ZM53.2239 14.2339C53.4278 14.4519 53.6743 14.6256 53.9481 14.7443C54.2219 14.8631 54.5172 14.9244 54.8154 14.9244C55.1139 14.9244 55.4092 14.8631 55.683 14.7443C55.9568 14.6256 56.2032 14.4519 56.4072 14.2339C56.6298 14.004 56.8038 13.7318 56.9193 13.4335C57.0351 13.1351 57.0897 12.8166 57.0803 12.4968C57.0902 12.1759 57.0359 11.8563 56.9201 11.5567C56.8046 11.2572 56.6301 10.9839 56.4072 10.7529C56.2006 10.5373 55.9526 10.3656 55.6777 10.2484C55.4031 10.1311 55.1076 10.0707 54.8088 10.0707C54.5101 10.0707 54.2145 10.1311 53.94 10.2484C53.6651 10.3656 53.4171 10.5373 53.2102 10.7529C52.9874 10.9839 52.8131 11.2572 52.6973 11.5567C52.5818 11.8563 52.5275 12.1759 52.5372 12.4968C52.5288 12.8171 52.5844 13.1359 52.7012 13.4342C52.818 13.7326 52.9934 14.0045 53.217 14.2339H53.2239ZM63.427 20.0984C62.6203 20.1241 61.8294 19.8722 61.1858 19.3847C60.6146 18.9551 60.1646 18.3843 59.8801 17.7284L61.4147 17.0887C61.5816 17.4808 61.8431 17.8254 62.1751 18.092C62.5308 18.3788 62.9773 18.5292 63.4338 18.5162C63.7233 18.5338 64.0134 18.4888 64.284 18.3842C64.5547 18.2796 64.7996 18.118 65.002 17.9102C65.4075 17.4209 65.6078 16.7934 65.5606 16.1596V15.5806H65.4999C65.2435 15.8853 64.9198 16.1261 64.5542 16.2839C64.1885 16.4416 63.7911 16.512 63.3934 16.4895C62.8881 16.491 62.388 16.3877 61.9247 16.1861C61.4611 15.9844 61.0448 15.6888 60.7012 15.3179C60.3287 14.9501 60.0344 14.5103 59.8368 14.0254C59.6388 13.5405 59.5415 13.0205 59.5504 12.4968C59.5412 11.9701 59.6383 11.4469 59.836 10.9586C60.0336 10.4704 60.3282 10.0271 60.7012 9.65546C61.0437 9.28305 61.4601 8.98597 61.9236 8.78311C62.387 8.58028 62.8875 8.47609 63.3934 8.47717C63.8215 8.47641 64.2447 8.5707 64.6319 8.75322C64.9668 8.89959 65.2655 9.11799 65.5068 9.39285H65.5674V8.75322H67.2366V15.9239C67.2805 16.4912 67.2083 17.0614 67.0243 17.5998C66.8403 18.1381 66.5484 18.6332 66.1664 19.0548C65.8026 19.403 65.3729 19.6747 64.9022 19.8539C64.4318 20.0332 63.9302 20.1163 63.427 20.0984ZM63.5483 14.9275C63.8357 14.9338 64.121 14.8767 64.3838 14.7603C64.6466 14.644 64.8807 14.4711 65.0694 14.2541C65.4847 13.7781 65.7036 13.1619 65.6819 12.5305C65.7068 11.8884 65.4879 11.2606 65.0694 10.7731C64.881 10.5558 64.6471 10.3827 64.3841 10.2663C64.121 10.1499 63.8357 10.093 63.5483 10.0998C63.2529 10.0938 62.9597 10.1507 62.6883 10.2668C62.4166 10.3829 62.173 10.5555 61.9733 10.7731C61.5281 11.2431 61.2863 11.8697 61.3002 12.517C61.2934 12.8345 61.3493 13.1502 61.4648 13.446C61.5803 13.7418 61.7533 14.0119 61.9733 14.2407C62.172 14.4604 62.4153 14.6353 62.6867 14.7538C62.9584 14.8722 63.2522 14.9314 63.5483 14.9275ZM70.2047 4.49119V16.2606H68.4481V4.49119H70.2047ZM75.0237 16.503C74.4977 16.5165 73.9742 16.4212 73.4868 16.2231C72.9993 16.025 72.5578 15.7283 72.19 15.3516C71.817 14.9777 71.5238 14.5318 71.3282 14.0411C71.1327 13.5503 71.039 13.0249 71.0526 12.4968C71.0327 11.9674 71.1195 11.4394 71.308 10.9443C71.4965 10.4492 71.7829 9.9971 72.1499 9.61506C72.4956 9.25044 72.9135 8.96209 73.377 8.76844C73.8406 8.57482 74.3396 8.48019 74.8418 8.49064C75.3038 8.48575 75.7619 8.57511 76.1879 8.75322C76.5719 8.90822 76.9218 9.13696 77.2177 9.42653C77.4718 9.67199 77.6978 9.94528 77.8907 10.2412C78.0469 10.4911 78.18 10.7548 78.2879 11.029L78.4695 11.4868L73.0851 13.702C73.2482 14.0763 73.5204 14.3925 73.8666 14.6088C74.2126 14.8252 74.616 14.9316 75.0237 14.914C75.4203 14.9151 75.8104 14.8133 76.1561 14.6186C76.5016 14.4239 76.7909 14.1429 76.9956 13.803L78.3417 14.712C77.9981 15.2036 77.5587 15.6205 77.0494 15.9374C76.4441 16.3201 75.7395 16.5167 75.0237 16.503ZM72.7757 12.3756L76.3562 10.8876C76.2459 10.6252 76.0488 10.4089 75.7976 10.2749C75.5164 10.1161 75.1983 10.0348 74.8757 10.0392C74.3278 10.0534 73.8078 10.2833 73.4285 10.6789C73.2014 10.8962 73.0253 11.1609 72.9124 11.4542C72.7995 11.7475 72.7528 12.0622 72.7757 12.3756ZM87.6702 16.503C86.9231 16.5159 86.181 16.3776 85.4888 16.0965C84.7963 15.8154 84.1679 15.3972 83.6413 14.8671C83.1145 14.337 82.7003 13.7059 82.4233 13.0116C82.1464 12.3174 82.0128 11.5743 82.0301 10.827C82.0128 10.0797 82.1464 9.33665 82.4233 8.64239C82.7003 7.94813 83.1145 7.317 83.6413 6.78688C84.1679 6.25676 84.7963 5.8386 85.4888 5.55749C86.181 5.27638 86.9231 5.13812 87.6702 5.15103C88.4262 5.12738 89.178 5.27496 89.8691 5.58277C90.56 5.89057 91.1727 6.35063 91.6612 6.92855L90.6921 7.87119C90.3335 7.42 89.8736 7.05985 89.3497 6.82001C88.8257 6.58016 88.2524 6.46742 87.6767 6.49091C87.1226 6.47842 86.5716 6.57814 86.0568 6.7841C85.5423 6.99006 85.0746 7.29799 84.6819 7.68941C84.2734 8.10012 83.9545 8.59089 83.7447 9.13082C83.5353 9.67078 83.4395 10.2483 83.4636 10.827C83.4395 11.4058 83.5353 11.9832 83.7447 12.5232C83.9545 13.0631 84.2734 13.5539 84.6819 13.9646C85.0746 14.356 85.5423 14.664 86.0568 14.8699C86.5716 15.0759 87.1226 15.1756 87.6767 15.1631C88.3201 15.1703 88.9567 15.0324 89.5392 14.7596C90.1219 14.4869 90.6354 14.0862 91.042 13.5876L92.0111 14.5571C91.5037 15.1642 90.8666 15.6496 90.1469 15.9778C89.3709 16.3362 88.5246 16.5156 87.6702 16.503ZM94.6159 16.2606H93.2226V5.38668H94.6159V16.2606ZM96.8907 9.71604C97.6208 8.99075 98.608 8.58372 99.6368 8.58372C100.666 8.58372 101.653 8.99075 102.383 9.71604C102.74 10.0931 103.019 10.5371 103.204 11.0224C103.388 11.5077 103.475 12.0248 103.46 12.5439C103.475 13.063 103.388 13.5801 103.204 14.0655C103.019 14.5508 102.74 14.9948 102.383 15.3718C101.653 16.0971 100.666 16.5042 99.6368 16.5042C98.608 16.5042 97.6208 16.0971 96.8907 15.3718C96.5338 14.9948 96.2547 14.5508 96.0699 14.0655C95.8851 13.5801 95.7982 13.063 95.814 12.5439C95.7982 12.0248 95.8851 11.5077 96.0699 11.0224C96.2547 10.5371 96.5338 10.0931 96.8907 9.71604ZM97.9274 14.4965C98.1468 14.7286 98.4111 14.9135 98.7046 15.0398C98.9981 15.1661 99.3141 15.2313 99.6333 15.2313C99.9528 15.2313 100.269 15.1661 100.562 15.0398C100.856 14.9135 101.12 14.7286 101.34 14.4965C101.583 14.2351 101.772 13.9279 101.896 13.5926C102.019 13.2574 102.075 12.9009 102.06 12.5439C102.075 12.187 102.019 11.8305 101.896 11.4952C101.772 11.16 101.583 10.8527 101.34 10.5913C101.12 10.3593 100.856 10.1744 100.562 10.0481C100.269 9.92174 99.9528 9.85658 99.6333 9.85658C99.3141 9.85658 98.9981 9.92174 98.7046 10.0481C98.4111 10.1744 98.1468 10.3593 97.9274 10.5913C97.6838 10.8527 97.4948 11.16 97.3711 11.4952C97.2475 11.8305 97.1916 12.187 97.2071 12.5439C97.1934 12.9003 97.2506 13.2558 97.3753 13.5898C97.5003 13.9238 97.6901 14.2297 97.9339 14.4898L97.9274 14.4965ZM111.179 16.2606H109.833V15.2304H109.793C109.553 15.6217 109.214 15.9423 108.81 16.1596C108.391 16.4027 107.915 16.5304 107.431 16.5299C107.037 16.5568 106.643 16.4945 106.277 16.3476C105.911 16.2007 105.583 15.973 105.317 15.6815C104.807 15.0364 104.551 14.2269 104.597 13.4058V8.82729H105.99V13.1499C105.99 14.5369 106.603 15.2304 107.828 15.2304C108.1 15.2389 108.37 15.1822 108.616 15.0651C108.862 14.948 109.076 14.7738 109.241 14.5571C109.602 14.0993 109.795 13.531 109.786 12.9479V8.82729H111.179V16.2606ZM115.911 16.503C115.438 16.5046 114.971 16.4036 114.541 16.2072C114.111 16.0108 113.729 15.7235 113.421 15.3651C112.723 14.5941 112.349 13.5836 112.377 12.5439C112.349 11.5043 112.723 10.4938 113.421 9.72279C113.729 9.3644 114.111 9.07709 114.541 8.88066C114.971 8.68423 115.438 8.58333 115.911 8.5849C116.44 8.57653 116.964 8.70156 117.432 8.94849C117.844 9.15573 118.192 9.4696 118.441 9.85745H118.502L118.441 8.82729V5.38668H119.835V16.2606H118.489V15.2304H118.428C118.179 15.6182 117.83 15.9321 117.419 16.1394C116.954 16.3841 116.436 16.5091 115.911 16.503ZM116.14 15.2304C116.455 15.235 116.767 15.1725 117.056 15.0472C117.345 14.9218 117.604 14.7364 117.816 14.5033C118.289 13.9642 118.531 13.2602 118.489 12.5439C118.531 11.8277 118.289 11.1237 117.816 10.5846C117.603 10.3502 117.343 10.1629 117.053 10.0348C116.763 9.90661 116.45 9.84044 116.133 9.84044C115.816 9.84044 115.503 9.90661 115.213 10.0348C114.923 10.1629 114.664 10.3502 114.45 10.5846C114.215 10.8498 114.035 11.1587 113.919 11.4938C113.804 11.8289 113.756 12.1834 113.777 12.5372C113.756 12.891 113.804 13.2455 113.919 13.5806C114.035 13.9157 114.215 14.2246 114.45 14.4898C114.663 14.7271 114.923 14.9161 115.215 15.0438C115.506 15.1716 115.821 15.2353 116.14 15.2304Z" fill="white"/>
</g>
</g>
<defs>
<clipPath id="clip0_101_116">
<rect width="119.963" height="21" fill="white" transform="translate(0.0187988)"/>
</clipPath>
</defs>
</svg>
