<svg width="120" height="17" viewBox="0 0 120 17" fill="none" xmlns="http://www.w3.org/2000/svg">
<g clip-path="url(#clip0_101_126)">
<g clip-path="url(#clip1_101_126)">
<mask id="mask0_101_126" style="mask-type:luminance" maskUnits="userSpaceOnUse" x="0" y="0" width="120" height="17">
<path d="M119.833 0H0.0292969V16.6875H119.833V0Z" fill="white"/>
</mask>
<g mask="url(#mask0_101_126)">
<path d="M0.0490723 2.29627L6.88805 1.35558V7.95926H0.0497019L0.0490723 2.29627ZM6.88805 8.80433V15.3333L0.0500167 14.3941L0.0498593 8.80465H6.88821L6.88805 8.80433ZM7.64426 1.25178L16.7443 0V7.95926H7.64426V1.25178ZM16.7443 8.80433V16.6878L7.64426 15.437V8.80433H16.7443Z" fill="white"/>
<path d="M32.1933 13.277H30.6123V7.1605C30.6123 6.65914 30.6438 6.04688 30.7062 5.3212H30.6797C30.581 5.73419 30.4941 6.03065 30.4185 6.21148L27.5516 13.277H26.4532L23.5794 6.2644C23.4991 6.05806 23.4142 5.74364 23.3249 5.32199H23.2986C23.3345 5.70003 23.3522 6.31717 23.3522 7.17389V13.277H21.8783V3.82544H24.1223L26.6476 10.1201C26.8395 10.6033 26.9646 10.964 27.0224 11.2009H27.0558C27.221 10.7043 27.3549 10.3349 27.4578 10.0933L30.0301 3.82544H32.1939L32.1933 13.277ZM35.1609 5.11044C34.9064 5.11044 34.6882 5.02948 34.508 4.86676C34.327 4.7042 34.2366 4.4974 34.2366 4.24711C34.2366 3.99682 34.327 3.78795 34.508 3.62066C34.6889 3.45401 34.9064 3.3702 35.1609 3.3702C35.4242 3.3702 35.648 3.45401 35.8309 3.62066C36.0136 3.78795 36.1056 3.99602 36.1056 4.24711C36.1056 4.48401 36.0136 4.68751 35.8309 4.85668C35.6472 5.02616 35.4242 5.11044 35.1609 5.11044ZM35.9308 13.277H34.3772V6.52745H35.9308V13.277ZM42.8774 12.9672C42.3286 13.279 41.6782 13.435 40.9281 13.435C39.91 13.435 39.0881 13.1218 38.463 12.496C37.838 11.8702 37.5251 11.0584 37.5251 10.0605C37.5251 8.94877 37.8612 8.05599 38.533 7.38119C39.2053 6.7067 40.1035 6.3693 41.2293 6.3693C41.8545 6.3693 42.406 6.47704 42.8835 6.69268V8.11615C42.4054 7.76489 41.8966 7.58878 41.3566 7.58878C40.7003 7.58878 40.1622 7.80774 39.7425 8.24468C39.3228 8.68179 39.1125 9.25405 39.1125 9.96145C39.1125 10.6602 39.3098 11.2116 39.7051 11.6158C40.1002 12.0202 40.6307 12.2223 41.2961 12.2223C41.8545 12.2223 42.3808 12.0269 42.8766 11.636L42.8774 12.9672ZM48.4031 7.98431C48.2153 7.83907 47.9454 7.76694 47.5925 7.76694C47.1325 7.76694 46.7483 7.97092 46.4402 8.37983C46.1319 8.78811 45.9778 9.3443 45.9778 10.0471V13.277H44.4233V6.52745H45.9778V7.91815H46.004C46.1559 7.44356 46.3891 7.07341 46.7041 6.80768C47.0188 6.5421 47.3705 6.40885 47.7589 6.40885C48.0405 6.40885 48.2548 6.45105 48.4025 6.53407L48.4031 7.98431ZM52.5562 13.435C51.4978 13.435 50.653 13.1198 50.0205 12.4893C49.3887 11.8589 49.0725 11.0228 49.0725 9.9816C49.0725 8.84764 49.4016 7.96227 50.0606 7.32512C50.7197 6.68797 51.6067 6.3693 52.7235 6.3693C53.7954 6.3693 54.63 6.67929 55.2285 7.29896C55.8271 7.91878 56.1258 8.77741 56.1258 9.87576C56.1258 10.9527 55.8034 11.8148 55.1578 12.4625C54.513 13.1111 53.6459 13.435 52.5562 13.435ZM52.6296 7.58878C52.0224 7.58878 51.542 7.79764 51.1899 8.2146C50.8367 8.63217 50.6605 9.20774 50.6605 9.94128C50.6605 10.6487 50.8395 11.2056 51.1966 11.6119C51.5535 12.0181 52.0318 12.2215 52.6302 12.2215C53.2427 12.2215 53.7124 12.0214 54.0403 11.622C54.368 11.2217 54.5328 10.6528 54.5328 9.91449C54.5328 9.1723 54.3689 8.59877 54.0403 8.19443C53.7118 7.79089 53.2418 7.58878 52.6296 7.58878ZM57.2854 13.0662V11.6494C57.8663 12.0844 58.5069 12.3018 59.2074 12.3018C60.1457 12.3018 60.6142 12.0295 60.6142 11.4846C60.6142 11.3307 60.5741 11.2003 60.4938 11.0924C60.4135 10.9847 60.3054 10.889 60.1686 10.806C60.0318 10.723 59.8714 10.6481 59.6865 10.5819C59.5007 10.5156 59.2946 10.4412 59.0668 10.3576C58.8061 10.2574 58.5522 10.1407 58.3065 10.0082C58.0806 9.88504 57.8935 9.74597 57.7439 9.59003C57.5964 9.4378 57.4815 9.25722 57.406 9.0592C57.3296 8.86183 57.2923 8.63075 57.2923 8.36723C57.2923 8.04197 57.3705 7.75545 57.5268 7.5072C57.6834 7.25878 57.8928 7.05009 58.1561 6.8814C58.42 6.71206 58.7185 6.58494 59.0539 6.49925C59.393 6.41302 59.7418 6.36984 60.0918 6.37072C60.7257 6.37072 61.2929 6.46506 61.7929 6.65378V7.99172C61.3106 7.66644 60.757 7.50374 60.1319 7.50374C59.9354 7.50374 59.7579 7.52389 59.5993 7.56264C59.4408 7.60217 59.3056 7.65716 59.1938 7.72741C59.0825 7.79764 58.9955 7.88192 58.9329 7.981C58.8707 8.07833 58.8382 8.19159 58.839 8.30705C58.839 8.45213 58.8703 8.5753 58.9329 8.67643C58.9955 8.77741 59.0879 8.86639 59.2109 8.94343C59.3334 9.02044 59.4811 9.0907 59.6532 9.15417C59.8253 9.21781 60.0224 9.28744 60.2462 9.36178C60.5167 9.46936 60.7817 9.59042 61.0399 9.72455C61.2746 9.84756 61.4746 9.98679 61.6398 10.1427C61.8025 10.295 61.9325 10.4791 62.0213 10.6835C62.1106 10.8876 62.1555 11.1307 62.1555 11.4117C62.1555 11.7544 62.0751 12.0528 61.9141 12.3079C61.7535 12.563 61.5386 12.7737 61.2712 12.9404C61.0032 13.1076 60.6938 13.2315 60.3436 13.3124C59.9925 13.3942 59.6231 13.4343 59.2349 13.4343C58.484 13.435 57.8344 13.3124 57.2854 13.0662ZM66.6765 13.435C65.6183 13.435 64.7729 13.1198 64.1409 12.4893C63.509 11.8589 63.1934 11.0228 63.1934 9.9816C63.1934 8.84764 63.5226 7.96227 64.1817 7.32512C64.8401 6.68797 65.7276 6.3693 66.8438 6.3693C67.916 6.3693 68.7504 6.67929 69.349 7.29896C69.9475 7.91878 70.2468 8.77741 70.2468 9.87576C70.2468 10.9527 69.9243 11.8148 69.2789 12.4625C68.6335 13.1111 67.7656 13.435 66.6765 13.435ZM66.7501 7.58878C66.1427 7.58878 65.6623 7.79764 65.3094 8.2146C64.9564 8.63217 64.7802 9.20774 64.7802 9.94128C64.7802 10.6487 64.9592 11.2056 65.3163 11.6119C65.6734 12.0181 66.1515 12.2215 66.7501 12.2215C67.3615 12.2215 67.8315 12.0214 68.16 11.622C68.4886 11.2217 68.6523 10.6528 68.6523 9.91449C68.6523 9.1723 68.4886 8.59877 68.16 8.19443C67.8315 7.79089 67.3615 7.58878 66.7501 7.58878ZM75.7126 4.53077C75.5032 4.41234 75.2637 4.35278 74.9957 4.35278C74.2407 4.35278 73.8638 4.77241 73.8638 5.61167V6.52791H75.4581V7.72741H73.8707V13.277H72.3165V7.72741H71.1446V6.52791H72.3165V5.43367C72.3165 4.7217 72.5532 4.16077 73.0265 3.74982C73.5 3.3387 74.0918 3.1333 74.8019 3.1333C75.1861 3.1333 75.4896 3.17489 75.7126 3.25854V4.53077ZM80.1936 13.2047C79.8903 13.354 79.4902 13.429 78.9944 13.429C77.664 13.429 76.9988 12.8005 76.9988 11.5443V7.72804H75.8534V6.52871H76.9988V4.96646L78.553 4.53157V6.52871H80.1942V7.72804H78.553V11.1023C78.553 11.5019 78.6264 11.7877 78.7741 11.959C78.9218 12.1304 79.1671 12.2161 79.5109 12.2161C79.7739 12.2161 80.0019 12.1418 80.1936 11.9918V13.2047ZM93.3761 13.277H91.6281L90.7641 10.8709H86.9864L86.156 13.277H84.4141L88.0108 3.82544H89.8058L93.3761 13.277ZM90.3417 9.5927L89.0092 5.82257C88.9691 5.6994 88.9264 5.50203 88.8821 5.22952H88.8557C88.8154 5.47998 88.7706 5.67798 88.7215 5.82257L87.402 9.5927H90.3417ZM99.592 7.16713L95.888 12.0836H99.5784V13.277H93.7105V12.7035L97.495 7.72063H94.0724V6.52729H99.592V7.16713ZM106.886 13.277H105.333V12.2089H105.306C104.855 13.0261 104.154 13.435 103.203 13.435C101.582 13.435 100.772 12.4773 100.772 10.5611V6.52729H102.326V10.4031C102.326 11.616 102.801 12.2223 103.753 12.2223C104.212 12.2223 104.591 12.0556 104.888 11.7217C105.185 11.3878 105.333 10.9506 105.333 10.4099V6.52729H106.888L106.886 13.277ZM112.895 7.98431C112.707 7.83907 112.437 7.76694 112.084 7.76694C111.624 7.76694 111.24 7.97092 110.932 8.37983C110.624 8.78811 110.469 9.3443 110.469 10.0471V13.277H108.916V6.52745H110.469V7.91815H110.496C110.648 7.44356 110.881 7.07341 111.196 6.80768C111.511 6.5421 111.862 6.40885 112.251 6.40885C112.532 6.40885 112.747 6.45105 112.893 6.53407L112.895 7.98431ZM119.814 10.3174H115.139C115.156 10.9412 115.351 11.4224 115.725 11.7611C116.098 12.0991 116.61 12.2684 117.262 12.2684C117.995 12.2684 118.667 12.0529 119.278 11.6226V12.8547C118.653 13.2415 117.827 13.435 116.8 13.435C115.79 13.435 114.999 13.1284 114.425 12.5154C113.851 11.9024 113.565 11.0403 113.565 9.92868C113.565 8.87851 113.88 8.02242 114.513 7.36118C115.145 6.69992 115.93 6.3693 116.868 6.3693C117.806 6.3693 118.531 6.6659 119.044 7.25878C119.558 7.85184 119.815 8.67564 119.815 9.73052L119.814 10.3174ZM118.314 9.23657C118.307 8.68715 118.178 8.25997 117.919 7.95486C117.659 7.64975 117.302 7.49712 116.847 7.49712C116.4 7.49712 116.021 7.65778 115.711 7.97833C115.401 8.29887 115.21 8.71865 115.139 9.23719H118.314V9.23657Z" fill="white"/>
</g>
</g>
</g>
<defs>
<clipPath id="clip0_101_126">
<rect width="120" height="16.6875" fill="white"/>
</clipPath>
<clipPath id="clip1_101_126">
<rect width="119.941" height="16.6875" fill="white" transform="translate(0.0292969)"/>
</clipPath>
</defs>
</svg>
