<svg class="mb-30" width="110px" height="110px" viewBox="0 0 110 110" version="1.1"
						xmlns="http://www.w3.org/2000/svg" xmlns:xlink="http://www.w3.org/1999/xlink">
							<g class="vector" transform="translate(-970.000000, -1348.000000)" fill="#1077DA">
								<g transform="translate(970.000000, 1348.000000)">
									<rect opacity="0.1" x="0" y="0" width="110" height="110" rx="55">
									</rect>
									<path
										d="M77.3577978,33 C79.4533956,33 81.2173765,34.7079836 81.1613792,36.8596008 L81.1613792,73.1403992 C81.1613792,75.2360522 79.4512453,77 77.3017785,77 L77.3017785,77 L32.6969239,77 C30.6012709,77 28.8373231,75.289866 28.8373231,73.1403992 L28.8373231,73.1403992 L28.8373231,36.8596008 C28.8373231,34.7639478 30.5474571,33 32.6969239,33 L32.6969239,33 Z M77.6334836,44.3032268 L32.4210176,44.3032268 L32.4210176,73.138304 C32.4210176,73.3041456 32.5308618,73.4139898 32.6967033,73.4139898 L32.6967033,73.4139898 L77.3577978,73.4139898 C77.5236393,73.4139898 77.6334836,73.3041456 77.6334836,73.138304 L77.6334836,73.138304 L77.6334836,44.3032268 Z M48.5769755,49.485237 C48.7966419,49.2655486 49.1843443,49.2655486 49.4040328,49.485237 L49.4040328,49.485237 L51.9950379,52.0762422 C52.2147264,52.2959086 52.2147264,52.683611 51.9950379,52.9032995 L51.9950379,52.9032995 L46.039674,58.8586634 L51.9950379,64.8697159 C52.2147264,65.0893823 52.2147264,65.4770847 51.9950379,65.6967732 L51.9950379,65.6967732 L49.4040328,68.2877783 C49.1843664,68.5074668 48.796664,68.5074668 48.5769755,68.2877783 L48.5769755,68.2877783 L39.645308,59.3002018 C39.4256195,59.0805353 39.4256195,58.6928329 39.645308,58.4731444 L39.645308,58.4731444 Z M60.6510197,49.4844651 C60.8706861,49.2647766 61.2583885,49.2647766 61.478077,49.4844651 L61.478077,49.4844651 L70.4659844,58.470167 C70.6856729,58.6898335 70.6856729,59.0775359 70.4659844,59.2972243 L70.4659844,59.2972243 L61.478077,68.2851318 C61.2584106,68.5048202 60.8707082,68.5048202 60.6510197,68.2851318 L60.6510197,68.2851318 L58.0600146,65.6941266 C57.8403261,65.4741294 57.8403261,65.0885773 58.0600146,64.8667385 L58.0600146,64.8667385 L64.0153785,58.8578915 L58.0600146,52.9025275 C57.8403261,52.6828611 57.8403261,52.2951587 58.0600146,52.0754702 L58.0600146,52.0754702 Z M45.3784692,36.969434 C44.4415787,36.969434 43.7243546,37.6866581 43.7243546,38.6235486 C43.7243546,39.5066252 44.4415787,40.2776632 45.3784692,40.2776632 C46.2615459,40.2776632 47.0325838,39.5604391 47.0325838,38.6235486 C47.0325838,37.7404719 46.3153597,36.969434 45.3784692,36.969434 Z M40.3062922,36.969434 C39.4232155,36.969434 38.6521776,37.6866581 38.6521776,38.6235486 C38.6521776,39.5066252 39.3694017,40.2776632 40.3062922,40.2776632 C41.1893688,40.2776632 41.9604068,39.5604391 41.9604068,38.6235486 C41.9604068,37.7404719 41.2431827,36.969434 40.3062922,36.969434 Z M35.2341151,36.969434 C34.3510385,36.969434 33.5800005,37.6866581 33.5800005,38.6235486 C33.5800005,39.5066252 34.2972246,40.2776632 35.2341151,40.2776632 C36.1171918,40.2776632 36.8882298,39.5604391 36.8882298,38.6235486 C36.8882298,37.7404719 36.1710057,36.969434 35.2341151,36.969434 Z"
										></path>
								</g>
							</g>
					</svg> 